# xmcd
#
# Track frame offsets: 
#        150
#        11637
#        25151
#        37802
#        50977
#        68404
#        80835
#        90756
#        104908
#        123246
#        136128
#        145497
#        158334
#        171933
#        181927
#        194054
#        206903
#        218278
#        235983
#        254479
#
# Disc length: 3579 seconds
#
# Revision: 0
# Processed by: cddbd v1.5.2PL0 Copyright (c) Steve Scherf et al.
# Submitted via: ExactAudioCopy v1.3
#
DISCID=180df914
DTITLE=Various Artist - Bluesology [Disc 2]
DYEAR=2016
DGENRE=Blues
TTITLE0=John Lee Hooker - Boom Boom
TTITLE1=B.B. King - 3 O'Clock Blues
TTITLE2=Jimmy Reed - Bright Lights Big City
TTITLE3=Slim Harpo - I'm A King Bee
TTITLE4=Jimmy Witherspoon - Ain't Nobody's Business
TTITLE5=Bo Diddley - Road Runner
TTITLE6=Buddy Guy - First Time I Met The Blues
TTITLE7=Junior Wells - I Could Cry
TTITLE8=Champion Jack Dupree - Goin' Down Slow
TTITLE9=Lightnin’ Hopkins - Broken Hearted Blues
TTITLE10=Willie Dixon and Memphis Slim - Don't You Tell Nobody
TTITLE11=Joe Williams - Crawlin' King Snake Poor
TTITLE12=Albert King - Travelin' To California
TTITLE13=Elmore James - I Can't Hold Out
TTITLE14=Muddy Waters - Long Distance Call
TTITLE15=Sonny Boy Williamson - Keep It To Yourself
TTITLE16=Robert Johnson - Me And The Devil Blues
TTITLE17=Lonnie Johnson - I Don't Hurt Anymore
TTITLE18=T-Bone Walker - Mean Old World
TTITLE19=Howlin' Wolf - Smokestack Lightnin'
EXTD=
EXTT0=
EXTT1=
EXTT2=
EXTT3=
EXTT4=
EXTT5=
EXTT6=
EXTT7=
EXTT8=
EXTT9=
EXTT10=
EXTT11=
EXTT12=
EXTT13=
EXTT14=
EXTT15=
EXTT16=
EXTT17=
EXTT18=
EXTT19=
PLAYORDER=
